<svg width="24" height="24" viewBox="0 0 24 24" fill="none" xmlns="http://www.w3.org/2000/svg">
<path d="M16.5 20.385L14.5575 18.4425L13.5 19.5L16.5 22.5L22.5 16.5L21.4425 15.4425L16.5 20.385Z" fill="white"/>
<path d="M18.75 3.75H16.5V3C16.4988 2.60254 16.3404 2.2217 16.0593 1.94065C15.7783 1.6596 15.3975 1.50119 15 1.5H9C8.60254 1.50119 8.2217 1.6596 7.94065 1.94065C7.6596 2.2217 7.50119 2.60254 7.5 3V3.75H5.25C4.85254 3.75119 4.4717 3.9096 4.19065 4.19065C3.9096 4.4717 3.75119 4.85254 3.75 5.25V21C3.75119 21.3975 3.9096 21.7783 4.19065 22.0593C4.4717 22.3404 4.85254 22.4988 5.25 22.5H12V21H5.25V5.25H7.5V7.5H16.5V5.25H18.75V13.5H20.25V5.25C20.2488 4.85254 20.0904 4.4717 19.8093 4.19065C19.5283 3.9096 19.1475 3.75119 18.75 3.75ZM15 6H9V3H15V6Z" fill="white"/>
</svg>
